<?xml version="1.0" encoding="iso-8859-1"?>
<!-- Uploaded to: SVG Repo, www.svgrepo.com, Generator: SVG Repo Mixer Tools -->
<svg height="800px" width="800px" version="1.1" id="Layer_1" xmlns="http://www.w3.org/2000/svg" xmlns:xlink="http://www.w3.org/1999/xlink" 
	 viewBox="0 0 512 512" xml:space="preserve">
<path style="fill:#72CCC5;" d="M414.585,446.27l-93.459-76.466l-27.522-114.172h-70.773l-86.63,197.703
	c-4.607,9.981-0.25,21.807,9.731,26.414c2.702,1.246,5.537,1.837,8.329,1.837c7.524,0,14.725-4.288,18.085-11.568l52.196-113.092
	l30.915-52.273l30.836,85.058c1.257,3.018,3.239,5.68,5.769,7.75l97.313,79.62c3.699,3.027,8.16,4.5,12.593,4.5
	c5.765,0,11.483-2.491,15.418-7.301C424.347,465.772,423.092,453.231,414.585,446.27z"/>
<path style="fill:#F4F3EC;" d="M384.624,225.791c-5.673-9.908-34.678-68.072-38.444-70.426l-72.486-49.758h-35.387
	c0,0-106.16,99.248-118.671,111.342c-7.026,6.791-6.909,18.112,0,25.022c6.591,6.591,16.634,6.32,24.031,0.897
	c24.697-18.107,79.164-66.487,79.164-66.487v79.252h70.773v-83.679l25.663,12.432c0,0,28.708,52.349,39.208,64.424
	c7.373,8.478,19.24,8.915,26.15,2.006C391.533,243.903,388.515,232.588,384.624,225.791z"/>
<path style="fill:#E8E6D9;" d="M238.307,140.989c0-12.274,1.726-24.143,4.945-35.382h-4.945c0,0-106.16,99.248-118.671,111.342
	c-7.026,6.791-6.909,18.112,0,25.022c6.591,6.591,16.634,6.32,24.031,0.897c24.697-18.107,79.164-66.487,79.164-66.487v79.252
	h70.773v-9.146C260.193,223.329,238.307,184.718,238.307,140.989z"/>
<circle style="fill:#FFE5BA;" cx="256" cy="61.374" r="53.08"/>
<path style="fill:#FFD175;" d="M273.693,110.026c-29.316,0-53.08-23.764-53.08-53.08c0-21.631,12.946-40.226,31.505-48.496
	c-27.501,1.99-49.198,24.915-49.198,52.924c0,29.316,23.764,53.08,53.08,53.08c7.684,0,14.981-1.647,21.575-4.584
	C276.291,109.963,275,110.026,273.693,110.026z"/>
<path style="fill:#FC9C47;" d="M185.227,43.68L185.227,43.68h97.313v61.927h17.693c9.772,0,17.693-7.921,17.693-17.693V43.68
	c0-19.543-15.843-35.387-35.387-35.387h-61.927C201.07,8.294,185.227,24.137,185.227,43.68z"/>
<path d="M414.687,309.08c0-4.58-3.712-8.294-8.294-8.294H335.62c-4.581,0-8.294,3.713-8.294,8.294s3.712,8.294,8.294,8.294h70.773
	C410.975,317.374,414.687,313.66,414.687,309.08z"/>
<path d="M105.607,317.374h61.927c4.58,0,8.294-3.713,8.294-8.294s-3.713-8.294-8.294-8.294h-61.927c-4.58,0-8.294,3.713-8.294,8.294
	S101.027,317.374,105.607,317.374z"/>
<path d="M406.946,406.393c0,4.58,3.712,8.294,8.294,8.294h44.233c4.581,0,8.294-3.713,8.294-8.294s-3.712-8.294-8.294-8.294H415.24
	C410.658,398.099,406.946,401.813,406.946,406.393z"/>
<path d="M238.307,398.099c-4.58,0-8.294,3.713-8.294,8.294s3.713,8.294,8.294,8.294h26.54c4.581,0,8.294-3.713,8.294-8.294
	s-3.712-8.294-8.294-8.294H238.307z"/>
<path d="M52.527,414.687h71.511c4.58,0,8.294-3.713,8.294-8.294s-3.713-8.294-8.294-8.294H52.527c-4.58,0-8.294,3.713-8.294,8.294
	S47.947,414.687,52.527,414.687z"/>
<path d="M503.706,495.413H8.294c-4.58,0-8.294,3.713-8.294,8.294S3.713,512,8.294,512h495.413c4.581,0,8.294-3.713,8.294-8.294
	S508.288,495.413,503.706,495.413z"/>
<path d="M148.571,249.556c17.226-12.63,48.077-39.202,65.966-54.833v59.17l-40.818,93.154c-1.838,4.196,0.072,9.087,4.267,10.926
	c4.197,1.838,9.087-0.072,10.926-4.267l39.34-89.78h58.82l25.991,107.822c0.424,1.758,1.41,3.331,2.811,4.475l93.459,76.466
	c4.524,3.702,5.571,10.439,2.37,15.335c-3.726,5.696-11.801,6.953-17.076,2.638l-97.313-79.62c-1.428-1.168-2.564-2.674-3.298-4.365
	l-30.76-84.852c-2.34-6.454-11.438-7.312-14.936-1.396l-30.916,52.273c-0.143,0.242-0.274,0.491-0.391,0.746l-52.196,113.092
	c-1.892,4.1-6.036,6.75-10.555,6.75c-3.743,0-7.392-1.912-9.527-4.987c-2.376-3.425-2.596-7.866-0.938-11.641l31.324-71.485
	c1.838-4.196-0.072-9.087-4.267-10.926c-4.196-1.838-9.087,0.073-10.926,4.267l-31.293,71.416
	c-6.395,13.962-0.09,30.922,13.823,37.343c3.739,1.726,7.71,2.601,11.805,2.601c10.967,0,21.021-6.432,25.615-16.386l52.019-112.709
	l21.754-36.782l24.846,68.537c0.044,0.122,0.091,0.242,0.14,0.362c1.774,4.261,4.6,8.057,8.174,10.981l97.312,79.62
	c5.025,4.11,11.361,6.375,17.846,6.375c8.499,0,16.458-3.77,21.837-10.343c9.845-12.034,8.065-29.834-3.969-39.681l-91.301-74.701
	L301.9,254.65v-69.461l11.377,5.511c6.174,11.179,29.102,52.238,38.941,63.552c4.716,5.424,11.341,9.003,18.541,9.576
	c7.287,0.581,14.546-1.963,19.73-7.148c10.034-10.033,6.99-25.129,1.334-35.007c-1.695-2.963-5.811-10.896-10.575-20.081
	c-24.448-47.134-27.227-51.036-30.489-53.144l-50.333-34.551c14.24-0.105,25.795-11.72,25.795-25.985V43.68
	C326.22,19.595,306.625,0,282.54,0h-61.927c-24.085,0-43.68,19.595-43.68,43.68c0,4.58,3.713,8.294,8.294,8.294h10.122
	c-0.477,3.099-0.722,6.239-0.722,9.4c0,20.49,10.103,38.653,25.578,49.807c-28.504,26.662-96.471,90.271-106.332,99.806
	c-10.249,9.906-10.128,26.822-0.101,36.85C122.876,256.94,137.511,257.663,148.571,249.556z M285.31,216.739h-54.186v-18.799h54.186
	V216.739z M231.123,247.338v-14.011h54.186v14.011H231.123z M220.613,16.587h61.927c14.94,0,27.093,12.154,27.093,27.093v44.233
	c0,5.183-4.217,9.4-9.4,9.4h-9.4V43.68c0-4.58-3.712-8.294-8.294-8.294h-87.721C198.33,24.491,208.565,16.587,220.613,16.587z
	 M211.214,61.374c0-3.179,0.346-6.324,1.002-9.4h62.031v50.294c-5.708,2.543-11.945,3.891-18.246,3.891
	C231.305,106.16,211.214,86.069,211.214,61.374z M125.4,222.912c10.305-9.962,85.166-80.006,110.392-103.599
	c6.332,2.215,13.128,3.435,20.208,3.435c7.55,0,15.04-1.41,22.041-4.097l62.724,43.058c3.753,5.099,17.997,32.561,25.757,47.52
	c5.048,9.735,9.038,17.425,10.903,20.685c2.396,4.184,4.727,11.641,1.333,15.036c-1.611,1.611-3.791,2.456-6.229,2.37
	c-2.9-0.101-5.668-1.505-7.797-3.952c-8.13-9.35-30.327-48.625-38.194-62.969c-0.828-1.511-2.105-2.725-3.657-3.476l-25.662-12.432
	c-5.416-2.627-11.91,1.465-11.91,7.464v9.4h-54.186v-4.974c0-7-8.555-10.861-13.801-6.2c-0.542,0.481-54.456,48.327-78.56,66
	c-3.664,2.687-9.377,3.811-13.262-0.073C121.941,232.548,121.718,226.472,125.4,222.912z"/>
<path d="M256,78.514h1.106c4.581,0,8.294-3.713,8.294-8.294s-3.712-8.294-8.294-8.294H256c-4.58,0-8.294,3.713-8.294,8.294
	S251.42,78.514,256,78.514z"/>
<path d="M230.566,78.514c4.58,0,8.294-3.713,8.294-8.294s-3.713-8.294-8.294-8.294h-1.106c-4.58,0-8.294,3.713-8.294,8.294
	s3.713,8.294,8.294,8.294H230.566z"/>
<path d="M353.668,60.821h8.452c4.602,0,8.334-3.731,8.334-8.334v-28.84c0-0.018,0.012-0.034,0.03-0.039l18.721-4.68
	c0.025-0.007,0.049,0.012,0.049,0.039v16.381c0,0.022-0.018,0.04-0.04,0.04h-0.129c-4.562,0-8.558,3.514-8.675,8.075
	c-0.121,4.679,3.638,8.512,8.291,8.512h8.807c4.602,0,8.334-3.731,8.334-8.334V8.294c0-5.309-5.149-9.331-10.305-8.046
	l-35.357,8.839c-3.71,0.928-6.312,4.261-6.312,8.085v27.024c0,0.021-0.017,0.038-0.038,0.038c-4.447,0.017-8.391,2.966-8.779,7.588
	C344.639,56.715,348.758,60.821,353.668,60.821z"/>
<path d="M398.099,96.76c0,4.58,3.712,8.294,8.294,8.294h8.847c4.581,0,8.294-3.713,8.294-8.294V67.849l18.799-4.7v16.47
	c-4.49,0-8.477,2.989-8.823,7.674c-0.351,4.744,3.511,8.913,8.271,8.913h8.847c4.581,0,8.294-3.713,8.294-8.294V52.527
	c0-5.307-5.15-9.333-10.305-8.046l-35.387,8.847c-3.692,0.923-6.282,4.241-6.282,8.046v27.093
	C402.229,88.467,398.099,91.813,398.099,96.76z"/>
</svg>